<?xml version="1.0" encoding="utf-8"?>
<!-- Generator: Adobe Illustrator 18.1.1, SVG Export Plug-In . SVG Version: 6.00 Build 0)  -->
<svg version="1.1" id="Layer_1" xmlns="http://www.w3.org/2000/svg" xmlns:xlink="http://www.w3.org/1999/xlink" x="0px" y="0px"
	 viewBox="0 0 256 256" enable-background="new 0 0 256 256" xml:space="preserve">
<g>
	<path fill="#ECF0F1" d="M170.5,115.9v24.6c0,0.9-0.3,1.7-0.9,2.6c-0.6,0.9-1.3,1.3-2.1,1.4l-20.6,3.2c-1,3.1-2.4,6.5-4.2,10.1
		c3,4.2,7,9.3,11.9,15.2c0.6,0.9,0.9,1.8,0.9,2.7c0,1.1-0.3,1.9-0.9,2.5c-2,2.7-5.7,6.6-11,11.9c-5.3,5.3-8.7,7.9-10.4,7.9
		c-1,0-1.9-0.3-2.8-0.9L115.1,185c-3.3,1.7-6.7,3.1-10.3,4.1c-1,9.5-2,16.4-3.1,20.6c-0.6,2.1-1.9,3.2-4,3.2H73.1
		c-1,0-1.8-0.4-2.7-1c-0.8-0.7-1.2-1.4-1.3-2.3l-3.1-20.3c-3-0.9-6.3-2.2-9.9-4.1L40.5,197c-0.6,0.6-1.5,0.9-2.7,0.9
		c-1,0-1.9-0.4-2.8-1.1c-12.8-11.8-19.1-18.9-19.1-21.3c0-0.8,0.3-1.6,0.9-2.5c0.9-1.2,2.7-3.6,5.5-7c2.8-3.5,4.8-6.2,6.2-8.1
		c-2-3.9-3.6-7.5-4.6-10.9l-20.2-3.2c-0.9-0.1-1.6-0.5-2.2-1.3s-0.9-1.6-0.9-2.6v-24.6c0-0.9,0.3-1.7,0.9-2.6
		c0.6-0.8,1.3-1.3,2.1-1.4l20.6-3.2c1-3.1,2.4-6.5,4.2-10.1c-3-4.2-7-9.3-11.9-15.2c-0.6-1-0.9-1.8-0.9-2.7c0-1.1,0.3-1.9,0.9-2.7
		c1.9-2.7,5.6-6.6,10.9-11.8c5.3-5.2,8.8-7.9,10.5-7.9c1,0,1.9,0.3,2.8,0.9l15.2,11.9c3-1.6,6.4-3,10.3-4.2c1-9.5,2-16.4,3.1-20.5
		c0.6-2.1,1.9-3.2,4-3.2h24.7c1,0,1.8,0.4,2.7,1c0.8,0.7,1.2,1.4,1.3,2.3l3.1,20.3c3,0.9,6.3,2.2,9.9,4.1l15.7-11.8
		c0.7-0.6,1.6-0.9,2.7-0.9c1,0,1.9,0.4,2.8,1.1c12.8,11.8,19.1,18.9,19.1,21.3c0,0.8-0.3,1.6-0.9,2.5c-1.1,1.4-2.9,3.8-5.6,7.2
		c-2.7,3.4-4.6,6-6,8c2,4.2,3.5,7.9,4.5,10.9l20.2,3.1c0.9,0.2,1.6,0.7,2.2,1.4C170.2,114,170.5,114.9,170.5,115.9z M109.5,152
		c6.6-6.6,9.9-14.6,9.9-24s-3.3-17.4-9.9-24c-6.6-6.6-14.6-9.9-24-9.9s-17.4,3.3-24,9.9c-6.6,6.6-9.9,14.6-9.9,24s3.3,17.4,9.9,24
		c6.6,6.6,14.6,9.9,24,9.9S102.9,158.6,109.5,152z M255.5,50.6v18.6c0,1.4-6.6,2.8-19.8,4.1c-1.1,2.4-2.4,4.7-4,6.9
		c4.5,10,6.8,16.1,6.8,18.3c0,0.4-0.2,0.7-0.5,0.9c-10.8,6.3-16.3,9.4-16.5,9.4c-0.7,0-2.8-2.1-6.1-6.2c-3.4-4.2-5.7-7.2-6.9-9
		c-1.8,0.2-3.1,0.3-4,0.3c-0.9,0-2.2-0.1-4-0.3c-1.2,1.8-3.5,4.8-6.9,9c-3.4,4.2-5.4,6.2-6.1,6.2c-0.2,0-5.7-3.2-16.5-9.4
		c-0.4-0.3-0.5-0.6-0.5-0.9c0-2.2,2.2-8.3,6.8-18.3c-1.6-2.2-2.9-4.5-4-6.9c-13.2-1.3-19.8-2.7-19.8-4.1V50.6
		c0-1.4,6.6-2.8,19.8-4.1c1.2-2.5,2.5-4.8,4-6.9c-4.5-10-6.8-16.1-6.8-18.3c0-0.4,0.2-0.7,0.5-0.9c0.4-0.2,1.9-1.1,4.6-2.7
		c2.8-1.6,5.4-3.1,7.9-4.5s3.8-2.1,4-2.1c0.7,0,2.8,2,6.1,6.2c3.4,4.1,5.7,7.1,6.9,9c1.8-0.2,3.1-0.3,4-0.3c0.9,0,2.2,0.1,4,0.3
		c4.5-6.3,8.6-11.2,12.2-14.9l0.8-0.3c0.4,0,5.9,3.1,16.5,9.3c0.4,0.3,0.5,0.6,0.5,0.9c0,2.2-2.2,8.3-6.8,18.3c1.5,2,2.9,4.3,4,6.9
		C248.9,47.8,255.5,49.2,255.5,50.6z M255.5,186.7v18.6c0,1.4-6.6,2.8-19.8,4.1c-1.1,2.4-2.4,4.7-4,6.9c4.5,10,6.8,16.1,6.8,18.3
		c0,0.4-0.2,0.7-0.5,0.9c-10.8,6.3-16.3,9.4-16.5,9.4c-0.7,0-2.8-2.1-6.1-6.2c-3.4-4.2-5.7-7.2-6.9-9c-1.8,0.2-3.1,0.3-4,0.3
		c-0.9,0-2.2-0.1-4-0.3c-1.2,1.8-3.5,4.8-6.9,9c-3.4,4.2-5.4,6.2-6.1,6.2c-0.2,0-5.7-3.2-16.5-9.4c-0.4-0.3-0.5-0.6-0.5-0.9
		c0-2.2,2.2-8.3,6.8-18.3c-1.6-2.2-2.9-4.5-4-6.9c-13.2-1.3-19.8-2.7-19.8-4.1v-18.6c0-1.4,6.6-2.8,19.8-4.1c1.2-2.6,2.5-4.8,4-6.9
		c-4.5-10-6.8-16.1-6.8-18.3c0-0.4,0.2-0.7,0.5-0.9c0.4-0.2,1.9-1.1,4.6-2.7c2.8-1.6,5.4-3.1,7.9-4.5s3.8-2.1,4-2.1
		c0.7,0,2.8,2,6.1,6.2c3.4,4.1,5.7,7.1,6.9,9c1.8-0.2,3.1-0.3,4-0.3c0.9,0,2.2,0.1,4,0.3c4.5-6.3,8.6-11.2,12.2-14.9l0.8-0.3
		c0.4,0,5.9,3.1,16.5,9.3c0.4,0.3,0.5,0.6,0.5,0.9c0,2.2-2.2,8.3-6.8,18.3c1.5,2,2.9,4.3,4,6.9C248.9,183.8,255.5,185.2,255.5,186.7
		z M221.5,59.9c0-4.6-1.7-8.6-5-11.9c-3.4-3.4-7.3-5-11.9-5s-8.6,1.7-11.9,5c-3.4,3.4-5,7.3-5,11.9c0,4.7,1.7,8.7,5,12
		c3.3,3.3,7.3,5,12,5c4.7,0,8.7-1.7,12-5C219.9,68.6,221.5,64.6,221.5,59.9z M221.5,195.9c0-4.6-1.7-8.6-5-11.9
		c-3.4-3.4-7.3-5-11.9-5s-8.6,1.7-11.9,5c-3.4,3.4-5,7.3-5,11.9c0,4.7,1.7,8.7,5,12c3.3,3.3,7.3,5,12,5c4.7,0,8.7-1.7,12-5
		C219.9,204.7,221.5,200.6,221.5,195.9z"/>
</g>
</svg>
