<?xml version="1.0" encoding="utf-8"?>
<!-- Generator: Adobe Illustrator 18.1.1, SVG Export Plug-In . SVG Version: 6.00 Build 0)  -->
<svg version="1.1" id="Layer_1" xmlns="http://www.w3.org/2000/svg" xmlns:xlink="http://www.w3.org/1999/xlink" x="0px" y="0px"
	 viewBox="0 0 512 512" enable-background="new 0 0 512 512" xml:space="preserve">
<g>
	<path fill="#ECF0F1" d="M339.3,232.2v48.2c0,1.7-0.6,3.4-1.8,5.1c-1.2,1.7-2.6,2.6-4.2,2.7l-40.4,6.2c-1.9,6.1-4.7,12.7-8.3,19.8
		c5.9,8.3,13.7,18.3,23.4,29.9c1.2,1.7,1.8,3.5,1.8,5.2c0,2.1-0.6,3.7-1.8,4.9c-4,5.2-11.2,13-21.5,23.3
		c-10.3,10.3-17.1,15.5-20.4,15.5c-1.9,0-3.7-0.6-5.5-1.8l-29.9-23.4c-6.4,3.3-13.1,6-20.1,8.1c-1.9,18.7-3.9,32.2-6,40.4
		c-1.2,4.2-3.8,6.2-7.8,6.2h-48.4c-1.9,0-3.6-0.7-5.2-2c-1.6-1.3-2.4-2.8-2.6-4.6l-6-39.8c-5.9-1.7-12.4-4.4-19.5-8.1l-30.7,23.2
		c-1.2,1.2-3,1.8-5.2,1.8c-1.9,0-3.7-0.7-5.5-2.1c-25-23.1-37.5-37-37.5-41.7c0-1.6,0.6-3.2,1.8-4.9c1.7-2.4,5.3-7,10.7-13.8
		c5.4-6.8,9.5-12.1,12.2-15.9c-4-7.6-7-14.8-9.1-21.4l-39.6-6.2c-1.7-0.2-3.2-1-4.4-2.5c-1.2-1.5-1.8-3.2-1.8-5.1v-48.2
		c0-1.7,0.6-3.4,1.8-5.1c1.2-1.6,2.6-2.6,4.2-2.7l40.4-6.2c1.9-6.1,4.7-12.7,8.3-19.8c-5.9-8.3-13.7-18.3-23.4-29.9
		c-1.2-1.9-1.8-3.6-1.8-5.2c0-2.1,0.6-3.8,1.8-5.2c3.8-5.2,10.9-12.9,21.4-23.2c10.4-10.2,17.3-15.4,20.6-15.4
		c1.9,0,3.7,0.6,5.5,1.8l29.9,23.4c5.9-3.1,12.6-5.9,20.1-8.3c1.9-18.7,3.9-32.1,6-40.1c1.2-4.2,3.8-6.3,7.8-6.3h48.4
		c1.9,0,3.6,0.7,5.2,2c1.6,1.3,2.4,2.8,2.6,4.6l6,39.8c5.9,1.7,12.4,4.4,19.5,8.1l30.7-23.2c1.4-1.2,3.1-1.8,5.2-1.8
		c1.9,0,3.7,0.7,5.5,2.1c25,23.1,37.5,37,37.5,41.7c0,1.6-0.6,3.2-1.8,4.9c-2.1,2.8-5.7,7.5-10.9,14.1c-5.2,6.6-9.1,11.8-11.7,15.6
		c4,8.3,6.9,15.5,8.9,21.4l39.6,6c1.7,0.3,3.2,1.3,4.4,2.7C338.7,228.6,339.3,230.3,339.3,232.2z M219.8,303
		c13-13,19.5-28.7,19.5-47.1c0-18.4-6.5-34.1-19.5-47.1c-13-13-28.7-19.5-47.1-19.5c-18.4,0-34.1,6.5-47.1,19.5
		c-13,13-19.5,28.7-19.5,47.1c0,18.4,6.5,34.1,19.5,47.1c13,13,28.7,19.5,47.1,19.5C191.1,322.5,206.8,316,219.8,303z M506,104.3
		v36.5c0,2.8-12.9,5.5-38.8,8.1c-2.1,4.7-4.7,9.2-7.8,13.5c8.9,19.6,13.3,31.6,13.3,35.9c0,0.7-0.3,1.3-1,1.8
		c-21.2,12.3-31.9,18.5-32.3,18.5c-1.4,0-5.4-4.1-12-12.2c-6.6-8.2-11.1-14.1-13.5-17.7c-3.5,0.4-6.1,0.5-7.8,0.5
		c-1.7,0-4.3-0.2-7.8-0.5c-2.4,3.6-6.9,9.5-13.5,17.7c-6.6,8.2-10.6,12.2-12,12.2c-0.4,0-11.1-6.2-32.3-18.5c-0.7-0.5-1-1.1-1-1.8
		c0-4.3,4.4-16.3,13.3-35.9c-3.1-4.3-5.7-8.9-7.8-13.5c-25.9-2.6-38.8-5.3-38.8-8.1v-36.5c0-2.8,12.9-5.5,38.8-8.1
		c2.3-5,4.9-9.5,7.8-13.5c-8.9-19.6-13.3-31.6-13.3-35.9c0-0.7,0.3-1.3,1-1.8c0.7-0.3,3.7-2.1,9.1-5.2c5.4-3.1,10.5-6.1,15.4-8.9
		c4.9-2.8,7.5-4.2,7.8-4.2c1.4,0,5.4,4,12,12.1c6.6,8.1,11.1,13.9,13.5,17.6c3.5-0.3,6.1-0.5,7.8-0.5c1.7,0,4.3,0.2,7.8,0.5
		c8.9-12.3,16.8-22,24-29.2l1.6-0.5c0.7,0,11.5,6.1,32.3,18.2c0.7,0.5,1,1.1,1,1.8c0,4.3-4.4,16.3-13.3,35.9c2.9,4,5.6,8.5,7.8,13.5
		C493.1,98.8,506,101.5,506,104.3z M506,371v36.5c0,2.8-12.9,5.5-38.8,8.1c-2.1,4.7-4.7,9.2-7.8,13.5c8.9,19.6,13.3,31.6,13.3,35.9
		c0,0.7-0.3,1.3-1,1.8c-21.2,12.3-31.9,18.5-32.3,18.5c-1.4,0-5.4-4.1-12-12.2c-6.6-8.2-11.1-14.1-13.5-17.7
		c-3.5,0.3-6.1,0.5-7.8,0.5c-1.7,0-4.3-0.2-7.8-0.5c-2.4,3.6-6.9,9.5-13.5,17.7c-6.6,8.2-10.6,12.2-12,12.2
		c-0.4,0-11.1-6.2-32.3-18.5c-0.7-0.5-1-1.1-1-1.8c0-4.3,4.4-16.3,13.3-35.9c-3.1-4.3-5.7-8.9-7.8-13.5c-25.9-2.6-38.8-5.3-38.8-8.1
		V371c0-2.8,12.9-5.5,38.8-8.1c2.3-5,4.9-9.5,7.8-13.5c-8.9-19.6-13.3-31.6-13.3-35.9c0-0.7,0.3-1.3,1-1.8c0.7-0.3,3.7-2.1,9.1-5.2
		c5.4-3.1,10.5-6.1,15.4-8.9c4.9-2.8,7.5-4.2,7.8-4.2c1.4,0,5.4,4,12,12.1c6.6,8.1,11.1,13.9,13.5,17.6c3.5-0.3,6.1-0.5,7.8-0.5
		c1.7,0,4.3,0.2,7.8,0.5c8.9-12.3,16.8-22,24-29.2l1.6-0.5c0.7,0,11.5,6.1,32.3,18.2c0.7,0.5,1,1.1,1,1.8c0,4.3-4.4,16.3-13.3,35.9
		c2.9,4,5.6,8.5,7.8,13.5C493.1,365.5,506,368.2,506,371z M439.3,122.5c0-9-3.3-16.8-9.9-23.4c-6.6-6.6-14.4-9.9-23.4-9.9
		c-9,0-16.8,3.3-23.4,9.9c-6.6,6.6-9.9,14.4-9.9,23.4c0,9.2,3.3,17.1,9.8,23.6c6.5,6.5,14.4,9.8,23.6,9.8c9.2,0,17.1-3.3,23.6-9.8
		C436.1,139.6,439.3,131.7,439.3,122.5z M439.3,389.2c0-9-3.3-16.8-9.9-23.4c-6.6-6.6-14.4-9.9-23.4-9.9c-9,0-16.8,3.3-23.4,9.9
		c-6.6,6.6-9.9,14.4-9.9,23.4c0,9.2,3.3,17.1,9.8,23.6c6.5,6.5,14.4,9.8,23.6,9.8c9.2,0,17.1-3.3,23.6-9.8
		C436.1,406.3,439.3,398.4,439.3,389.2z"/>
</g>
</svg>
