<?xml version="1.0" encoding="UTF-8" standalone="no"?>
<svg width="106px" height="106px" viewBox="0 0 106 106" version="1.1" xmlns="http://www.w3.org/2000/svg" xmlns:xlink="http://www.w3.org/1999/xlink" xmlns:sketch="http://www.bohemiancoding.com/sketch/ns">
    <!-- Generator: Sketch Beta 3.2 (9961) - http://www.bohemiancoding.com/sketch -->
    <title>header-logo-icon</title>
    <desc>Created with Sketch Beta.</desc>
    <defs>
        <circle id="path-1" cx="53" cy="53" r="53"></circle>
        <linearGradient x1="19.1981915%" y1="-0.465489313%" x2="81.4368941%" y2="90.3342734%" id="linearGradient-3">
            <stop stop-color="#641A00" stop-opacity="0.5" offset="0%"></stop>
            <stop stop-color="#641C00" stop-opacity="0" offset="82.76%"></stop>
        </linearGradient>
    </defs>
    <g id="Page-1" stroke="none" stroke-width="1" fill="none" fill-rule="evenodd" sketch:type="MSPage">
        <g id="shadowlogo" sketch:type="MSLayerGroup">
            <g id="Group">
                <circle id="Oval" fill="#F58220" sketch:type="MSShapeGroup" cx="53" cy="53" r="53"></circle>
                <g>
                    <g id="Clipped">
                        <mask id="mask-2" sketch:name="SVGID_1_" fill="white">
                            <use xlink:href="#path-1"></use>
                        </mask>
                        <g id="SVGID_1_"></g>
                        <g id="Group" mask="url(#mask-2)" fill="url(#linearGradient-3)" sketch:type="MSShapeGroup">
                            <g transform="translate(16.000000, 22.000000)" id="Shape">
                                <path d="M53.86,12.714 C53.975,12.687 54.083,12.669 54.187,12.637 C54.604,12.508 54.96,12.617 55.246,12.929 C55.508,13.215 55.752,13.518 55.997,13.819 C57.27,15.381 58.543,16.943 59.812,18.509 C60.65,19.543 61.48,20.584 62.318,21.618 C63.214,22.724 64.117,23.825 65.015,24.929 C65.691,25.761 66.364,26.596 67.039,27.43 C67.423,27.904 67.803,28.381 68.191,28.852 C68.27,28.948 68.374,29.024 68.509,29.149 C68.544,29.04 68.584,28.976 68.58,28.916 C68.521,28.198 68.454,27.481 68.392,26.764 C68.27,25.361 68.047,23.974 67.718,22.606 C67.463,21.546 67.188,20.488 66.865,19.446 C66.427,18.032 65.863,16.664 65.263,15.309 C64.67,13.969 63.961,12.694 63.216,11.436 C62.452,10.146 61.599,8.914 60.688,7.723 C60.609,7.62 60.529,7.518 60.46,7.409 C60.194,6.988 60.205,6.57 60.494,6.166 C60.59,6.031 60.702,5.905 60.819,5.788 C61.995,4.609 63.172,3.431 64.351,2.256 C64.481,2.126 64.629,2.012 64.77,1.894 C65.135,1.59 65.884,1.62 66.26,2.105 C67.042,3.113 67.853,4.098 68.658,5.088 C69.731,6.407 70.812,7.721 71.886,9.04 C72.703,10.044 73.514,11.052 74.329,12.058 C75.237,13.178 76.147,14.297 77.054,15.418 C77.775,16.309 78.492,17.204 79.215,18.093 C80.44,19.599 81.671,21.1 82.896,22.606 C83.701,23.595 84.501,24.589 85.304,25.581 C86.223,26.716 87.144,27.849 88.064,28.984 C88.53,29.558 88.989,30.139 89.463,30.706 C89.641,30.918 112.513,57.675 112.504,57.947 C112.478,58.778 112.553,59.612 112.413,60.44 C112.392,60.567 112.395,60.698 112.394,60.828 C112.392,61.588 112.294,62.34 112.201,63.091 C112.09,63.99 111.986,64.89 111.843,65.784 C111.686,66.77 111.508,67.753 111.303,68.73 C110.813,71.07 110.115,73.352 109.302,75.598 C108.799,76.99 108.224,78.353 107.592,79.693 C107.166,80.596 106.72,81.489 106.249,82.37 C105.262,84.215 104.177,86.001 102.949,87.696 C102.212,88.714 101.453,89.718 100.67,90.701 C100.106,91.409 99.477,92.063 98.894,92.757 C98.035,93.78 97.063,94.691 96.112,95.622 C95.532,96.19 94.912,96.72 94.291,97.244 C93.444,97.96 92.595,98.675 91.718,99.352 C89.885,100.767 87.953,102.037 85.937,103.176 C83.987,104.277 81.981,105.266 79.906,106.117 C77.385,107.152 74.803,107.993 72.153,108.624 C70.551,109.006 68.937,109.322 67.301,109.527 C66.568,109.619 65.837,109.736 65.102,109.812 C64.441,109.88 63.776,109.909 63.112,109.954 C62.707,109.982 62.301,110.009 61.896,110.035 C61.767,110.043 61.638,110.055 61.508,110.055 C60.416,110.056 59.325,110.056 58.233,110.055 C58.122,110.055 58.011,110.047 57.9,110.041 C57.431,110.014 57.077,109.815 56.777,109.434 C55.875,108.286 32.147,80.634 31.228,79.5 C30.262,78.308 29.301,77.111 28.335,75.918 C27.602,75.013 26.866,74.11 26.133,73.205 C25.388,72.286 24.646,71.364 23.9,70.445 C23.037,69.383 22.17,68.325 21.308,67.263 C20.585,66.373 19.869,65.479 19.147,64.588 C18.122,63.325 17.093,62.064 16.068,60.801 C15.019,59.509 13.975,58.213 12.926,56.923 C11.701,55.417 10.464,53.921 9.247,52.409 C8.146,51.041 7.052,49.666 5.98,48.275 C5.199,47.262 4.553,46.159 3.952,45.032 C3.211,43.643 2.554,42.214 2.04,40.725 C1.484,39.114 1.048,37.469 0.772,35.786 C0.646,35.02 0.521,34.251 0.457,33.479 C0.377,32.504 0.309,31.527 0.319,30.544 C0.348,27.527 0.798,24.581 1.669,21.692 C2.265,19.717 3.075,17.835 4.057,16.026 C4.915,14.446 5.926,12.967 7.05,11.561 C8.059,10.3 9.18,9.144 10.368,8.062 C11.957,6.615 13.684,5.344 15.564,4.287 C16.889,3.542 18.245,2.867 19.662,2.318 C21.826,1.479 24.054,0.894 26.354,0.557 C28.321,0.269 30.296,0.17 32.272,0.275 C34.361,0.386 36.427,0.703 38.445,1.282 C39.726,1.65 40.992,2.064 42.22,2.584 C43.705,3.211 45.138,3.94 46.5,4.803 C47.031,5.139 47.546,5.5 48.072,5.845 C48.354,6.03 48.589,6.26 48.8,6.521 C49.845,7.816 50.893,9.108 51.941,10.401 C52.5,11.09 53.059,11.779 53.62,12.467 C53.694,12.551 53.775,12.625 53.86,12.714 L53.86,12.714 Z"></path>
                            </g>
                        </g>
                    </g>
                    <g transform="translate(52.000000, 23.000000)" id="Shape" fill="#FCBC86" sketch:type="MSShapeGroup">
                        <path d="M19.071,11.764 C18.908,11.54 18.656,11.397 18.38,11.375 C18.103,11.353 17.83,11.453 17.634,11.649 L13.608,15.675 C13.289,15.994 13.24,16.491 13.489,16.866 C15.992,20.646 17.297,24.98 17.297,29.34 C17.301,33.714 15.996,38.055 13.488,41.85 C13.24,42.225 13.29,42.722 13.607,43.04 L17.633,47.066 C17.83,47.262 18.103,47.364 18.379,47.342 C18.656,47.318 18.909,47.176 19.071,46.95 C22.866,41.698 24.872,35.552 24.872,29.355 C24.875,23.149 22.867,17.01 19.071,11.764 L19.071,11.764 Z"></path>
                        <path d="M7.514,22.339 C7.212,22.287 6.903,22.386 6.687,22.602 L0.607,28.685 C0.238,29.055 0.238,29.654 0.607,30.023 L6.917,36.339 C7.077,36.498 7.304,36.572 7.529,36.537 C7.754,36.502 7.948,36.362 8.05,36.16 C9.144,34.025 9.725,31.696 9.725,29.355 C9.725,27.128 9.199,24.91 8.208,22.861 C8.075,22.584 7.816,22.39 7.514,22.339 L7.514,22.339 Z"></path>
                        <path d="M29.923,0.833 C29.755,0.624 29.504,0.497 29.236,0.483 C28.968,0.468 28.705,0.568 28.516,0.758 L24.367,4.91 C24.029,5.248 23.996,5.785 24.292,6.163 C29.321,12.583 32.438,20.561 32.438,29.354 C32.438,38.139 29.32,46.125 24.292,52.552 C23.997,52.929 24.029,53.467 24.368,53.805 L28.516,57.944 C28.706,58.133 28.968,58.234 29.236,58.219 C29.504,58.204 29.754,58.077 29.922,57.868 C36.224,50.075 40.014,40.169 40.014,29.354 C40.014,18.545 36.225,8.634 29.923,0.833 L29.923,0.833 Z"></path>
                    </g>
                    <g transform="translate(16.000000, 22.000000)" id="Shape" fill="#FFFFFF" sketch:type="MSShapeGroup">
                        <path d="M30.582,22.783 C31.033,22.783 31.474,22.885 31.912,23.002 C32.238,23.09 32.588,22.996 32.826,22.757 L37.334,18.25 C37.55,18.034 37.649,17.725 37.597,17.424 C37.546,17.122 37.352,16.863 37.077,16.73 C35.025,15.738 32.811,15.212 30.582,15.212 C26.708,15.212 22.837,16.691 19.883,19.648 C16.929,22.598 15.45,26.473 15.45,30.347 C15.45,34.214 16.929,38.088 19.883,41.031 C22.837,43.996 26.708,45.475 30.582,45.475 C32.81,45.475 35.024,44.954 37.075,43.965 C37.35,43.832 37.545,43.573 37.596,43.272 C37.648,42.969 37.549,42.66 37.332,42.444 L32.825,37.943 C32.587,37.706 32.24,37.612 31.915,37.697 C31.476,37.813 31.035,37.911 30.582,37.911 C28.645,37.911 26.708,37.172 25.229,35.693 C23.75,34.214 23.015,32.284 23.015,30.347 C23.015,28.41 23.751,26.48 25.229,25.001 C26.707,23.523 28.645,22.783 30.582,22.783 L30.582,22.783 Z"></path>
                        <path d="M44.251,49.374 C43.932,49.054 43.435,49.006 43.06,49.254 C39.283,51.759 34.949,53.069 30.583,53.069 C24.771,53.069 18.96,50.851 14.523,46.414 C10.087,41.978 7.868,36.166 7.868,30.354 C7.868,24.542 10.086,18.731 14.523,14.294 C18.956,9.858 24.771,7.639 30.583,7.639 C34.946,7.639 39.283,8.937 43.06,11.446 C43.434,11.695 43.933,11.646 44.252,11.328 L48.281,7.302 C48.477,7.105 48.578,6.833 48.555,6.557 C48.533,6.28 48.39,6.027 48.165,5.865 C42.916,2.067 36.78,0.068 30.582,0.068 C22.829,0.068 15.077,3.026 9.165,8.933 C3.25,14.841 0.296,22.605 0.296,30.353 C0.296,38.102 3.254,45.851 9.165,51.766 C15.077,57.681 22.829,60.639 30.578,60.639 C36.776,60.639 42.911,58.628 48.163,54.842 C48.387,54.679 48.53,54.426 48.553,54.149 C48.575,53.874 48.475,53.6 48.279,53.404 L44.251,49.374 L44.251,49.374 Z"></path>
                    </g>
                </g>
            </g>
        </g>
    </g>
</svg>