<?xml version="1.0" encoding="utf-8"?>
<!-- Generator: Adobe Illustrator 18.1.1, SVG Export Plug-In . SVG Version: 6.00 Build 0)  -->
<svg version="1.1" id="Layer_1" xmlns="http://www.w3.org/2000/svg" xmlns:xlink="http://www.w3.org/1999/xlink" x="0px" y="0px"
	 viewBox="0 0 512 512" enable-background="new 0 0 512 512" xml:space="preserve">
<g>
	<path fill="#EB453E" d="M301.5,281.3L135.2,447.5c-6,6-13.3,9-21.9,9c-8.5,0-15.8-3-22.2-9l-25.8-26.3c-6.2-5.8-9.3-13.2-9.3-21.9
		c0-8.6,3.1-16,9.3-22.2l166-166c6.3,15.9,15.6,30,27.9,42.3C271.4,265.7,285.5,275,301.5,281.3z M139.9,394.6
		c3.1-3.1,4.6-6.7,4.6-11c0-4.2-1.5-7.9-4.6-11c-3.1-3.1-6.7-4.6-11-4.6c-4.2,0-7.9,1.5-11,4.6c-3.1,3.1-4.6,6.7-4.6,11
		c0,4.2,1.5,7.9,4.6,11c3.1,3.1,6.7,4.6,11,4.6C133.1,399.3,136.8,397.7,139.9,394.6z M456,175.3c0,6.3-1.9,15-5.6,25.8
		c-7.6,21.8-21,39.4-40.1,53c-19.1,13.6-40.1,20.4-63,20.4c-30.1,0-55.8-10.7-77.1-32.1c-21.4-21.4-32.1-47.1-32.1-77.1
		c0-30.1,10.7-55.8,32.1-77.1c21.4-21.4,47.1-32.1,77.1-32.1c9.4,0,19.3,1.3,29.6,4c10.3,2.7,19.1,6.5,26.2,11.3
		c2.6,1.8,3.9,4.1,3.9,6.8c0,2.8-1.3,5-3.9,6.8l-71.4,41.2v54.6l47,26.1c0.8-0.5,7.2-4.4,19.3-11.8c12-7.4,23-14,33-19.7
		c10-5.8,15.7-8.7,17.2-8.7c2.4,0,4.3,0.8,5.7,2.4C455.3,170.8,456,172.8,456,175.3z"/>
</g>
</svg>
