<?xml version="1.0" encoding="utf-8"?>
<!-- Generator: Adobe Illustrator 18.1.1, SVG Export Plug-In . SVG Version: 6.00 Build 0)  -->
<svg version="1.1" id="Layer_1" xmlns="http://www.w3.org/2000/svg" xmlns:xlink="http://www.w3.org/1999/xlink" x="0px" y="0px"
	 viewBox="0 0 255 170" enable-background="new 0 0 255 170" xml:space="preserve">
<g>
	<path fill="#2381B6" d="M233.3,144.3h21.2V157c0,3.5-2.1,6.5-6.2,9c-4.2,2.4-9.1,3.7-14.9,3.7H21.7c-5.8,0-10.8-1.3-14.9-3.7
		c-4.2-2.4-6.2-5.5-6.2-9v-12.7h21.2H233.3z M55.5,135.8c-5.8,0-10.8-2.1-14.9-6.2c-4.2-4.2-6.2-9.1-6.2-14.9V21.5
		c0-5.8,2.1-10.8,6.2-14.9s9.1-6.2,14.9-6.2h143.9c5.8,0,10.8,2.1,14.9,6.2c4.2,4.2,6.2,9.1,6.2,14.9v93.1c0,5.8-2.1,10.8-6.2,14.9
		c-4.2,4.2-9.1,6.2-14.9,6.2H55.5z M51.3,21.5v93.1c0,1.1,0.4,2.1,1.3,3c0.9,0.9,1.9,1.3,3,1.3h143.9c1.1,0,2.1-0.4,3-1.3
		s1.3-1.9,1.3-3V21.5c0-1.1-0.4-2.1-1.3-3s-1.9-1.3-3-1.3H55.5c-1.1,0-2.1,0.4-3,1.3C51.7,19.4,51.3,20.4,51.3,21.5z M138.1,157
		c1.4,0,2.1-0.7,2.1-2.1s-0.7-2.1-2.1-2.1h-21.2c-1.4,0-2.1,0.7-2.1,2.1s0.7,2.1,2.1,2.1H138.1z"/>
</g>
</svg>
