<?xml version="1.0" encoding="utf-8"?>
<!-- Generator: Adobe Illustrator 18.1.1, SVG Export Plug-In . SVG Version: 6.00 Build 0)  -->
<svg version="1.1" id="Layer_1" xmlns="http://www.w3.org/2000/svg" xmlns:xlink="http://www.w3.org/1999/xlink" x="0px" y="0px"
	 viewBox="0 0 512 512" enable-background="new 0 0 512 512" xml:space="preserve">
<g>
	<path fill="#2381B6" d="M416,345.6h32v19.2c0,5.3-3.1,9.9-9.4,13.6c-6.3,3.7-13.8,5.6-22.6,5.6H96c-8.8,0-16.3-1.9-22.6-5.6
		c-6.3-3.7-9.4-8.3-9.4-13.6v-19.2h32H416z M147.2,332.8c-8.8,0-16.3-3.1-22.6-9.4c-6.3-6.3-9.4-13.8-9.4-22.6V160
		c0-8.8,3.1-16.3,9.4-22.6c6.3-6.3,13.8-9.4,22.6-9.4h217.6c8.8,0,16.3,3.1,22.6,9.4c6.3,6.3,9.4,13.8,9.4,22.6v140.8
		c0,8.8-3.1,16.3-9.4,22.6c-6.3,6.3-13.8,9.4-22.6,9.4H147.2z M140.8,160v140.8c0,1.7,0.6,3.2,1.9,4.5c1.3,1.3,2.8,1.9,4.5,1.9
		h217.6c1.7,0,3.2-0.6,4.5-1.9c1.3-1.3,1.9-2.8,1.9-4.5V160c0-1.7-0.6-3.2-1.9-4.5c-1.3-1.3-2.8-1.9-4.5-1.9H147.2
		c-1.7,0-3.2,0.6-4.5,1.9C141.4,156.8,140.8,158.3,140.8,160z M272,364.8c2.1,0,3.2-1.1,3.2-3.2s-1.1-3.2-3.2-3.2h-32
		c-2.1,0-3.2,1.1-3.2,3.2s1.1,3.2,3.2,3.2H272z"/>
</g>
</svg>
