<?xml version="1.0" encoding="utf-8"?>
<!-- Generator: Adobe Illustrator 18.1.1, SVG Export Plug-In . SVG Version: 6.00 Build 0)  -->
<svg version="1.1" id="Layer_1" xmlns="http://www.w3.org/2000/svg" xmlns:xlink="http://www.w3.org/1999/xlink" x="0px" y="0px"
	 viewBox="0 0 256 256" enable-background="new 0 0 256 256" xml:space="preserve">
<g>
	<path fill="#EB453E" d="M157,143.9l-106,106c-3.8,3.8-8.5,5.7-14,5.7c-5.4,0-10.1-1.9-14.2-5.7L6.4,233.1c-4-3.7-5.9-8.4-5.9-14
		c0-5.5,2-10.2,5.9-14.2L112.3,99.2c4,10.1,9.9,19.1,17.8,27C137.8,134,146.8,139.9,157,143.9z M54,216.2c2-2,2.9-4.3,2.9-7
		c0-2.7-1-5-2.9-7s-4.3-2.9-7-2.9c-2.7,0-5,1-7,2.9c-2,2-2.9,4.3-2.9,7c0,2.7,1,5,2.9,7c2,2,4.3,2.9,7,2.9
		C49.7,219.2,52,218.1,54,216.2z M255.5,76.4c0,4-1.2,9.6-3.6,16.4c-4.8,13.9-13.4,25.1-25.6,33.8c-12.2,8.7-25.6,13-40.2,13
		c-19.2,0-35.6-6.8-49.2-20.5c-13.6-13.6-20.5-30-20.5-49.2c0-19.2,6.8-35.6,20.5-49.2c13.6-13.6,30-20.5,49.2-20.5
		c6,0,12.3,0.8,18.9,2.5c6.6,1.7,12.2,4.1,16.7,7.2c1.7,1.1,2.5,2.6,2.5,4.3c0,1.8-0.8,3.2-2.5,4.3l-45.5,26.3v34.8l30,16.6
		c0.5-0.3,4.6-2.8,12.3-7.5c7.7-4.7,14.7-8.9,21-12.6c6.4-3.7,10-5.5,11-5.5c1.5,0,2.7,0.5,3.6,1.5
		C255.1,73.5,255.5,74.8,255.5,76.4z"/>
</g>
</svg>
