<?xml version="1.0" encoding="utf-8"?>
<!-- Generator: Adobe Illustrator 18.1.1, SVG Export Plug-In . SVG Version: 6.00 Build 0)  -->
<svg version="1.1" id="Layer_1" xmlns="http://www.w3.org/2000/svg" xmlns:xlink="http://www.w3.org/1999/xlink" x="0px" y="0px"
	 viewBox="0 0 1920 1080" enable-background="new 0 0 1920 1080" xml:space="preserve">
<path d="M1331.6,618.8H1202V613h129.6V618.8z M1320.1,540h-106.6v5.7h106.6V540z M1331.6,461.2H1202v5.7h129.6V461.2z M1359.5,461.2
	l66.9,157.5h6.1l-66.9-157.5H1359.5z M1500,461.2h-6.1l-19.1,45h6.1L1500,461.2z M1083.9,613h-33.6v-33.6h-5.7v39.4h39.4V613z
	 M1089.4,461.2h-45V540H1005v5.6h45v-78.8h39.4c43.5,0,78.8,35.3,78.8,78.8h5.6C1173.8,499,1136,461.2,1089.4,461.2z M953.7,461.2
	l-66.9,157.5h6.1l66.9-157.5H953.7z M802.7,461.2h-5.8V540H695.6v-78.8H690v157.5h5.6v-73.1h101.2v73.1h5.8V461.2z M661.9,461.2
	H543.8v5.6H600v151.9h5.6V466.9h56.2V461.2z M504.2,540h-78.4v-73.1h89.8v-5.6H420v157.5h95.6v-5.6h-89.8v-67.5h78.4V540z"/>
</svg>
