<?xml version="1.0" encoding="utf-8"?>
<!-- Generator: Adobe Illustrator 18.1.1, SVG Export Plug-In . SVG Version: 6.00 Build 0)  -->
<svg version="1.1" id="Layer_1" xmlns="http://www.w3.org/2000/svg" xmlns:xlink="http://www.w3.org/1999/xlink" x="0px" y="0px"
	 viewBox="0 0 1530 336" enable-background="new 0 0 1530 336" xml:space="preserve">
<polygon opacity="0.45" fill="#FFFFFF" points="5.5,173.9 109.5,235.3 109.5,1.5 "/>
<polygon opacity="0.6" fill="#FFFFFF" points="5.5,173.9 109.5,126.7 213.4,173.9 109.5,235.3 "/>
<polygon opacity="0.8" fill="#FFFFFF" points="213.4,173.9 109.5,235.3 109.5,1.5 "/>
<polygon opacity="0.45" fill="#FFFFFF" points="109.5,334.5 109.5,249.5 5.5,188.1 "/>
<polygon opacity="0.8" fill="#FFFFFF" points="109.5,334.5 109.5,249.5 213.4,188.1 "/>
<polygon fill="#FFFFFF" points="420.3,125 345.5,125 345.5,173.7 411.6,173.7 411.6,189 345.5,189 345.5,235.7 420.3,235.7 
	420.3,251.2 329,251.2 329,109.4 420.3,109.4 "/>
<polygon fill="#FFFFFF" points="519.8,251.2 519.8,125 474,125 474,109.4 582.2,109.4 582.2,125 536.3,125 536.3,251.2 "/>
<polygon fill="#FFFFFF" points="743.2,251.2 726.7,251.2 726.7,189 653.3,189 653.3,251.2 636.8,251.2 636.8,109.4 653.3,109.4 
	653.3,173.7 726.7,173.7 726.7,109.4 743.2,109.4 "/>
<polygon fill="#FFFFFF" points="888.2,109.4 888.2,125 813.4,125 813.4,173.7 879.4,173.7 879.4,189 813.4,189 813.4,235.7 
	888.2,235.7 888.2,251.2 796.9,251.2 796.9,109.4 "/>
<path fill="#FFFFFF" d="M993.1,173.7c15.1,0,25.1-11.1,25.1-24.7c0-13.8-11.8-24.3-26-24.3h-33.6v48.9H993.1z"/>
<path fill="#FFFFFF" d="M1042.3,251.2h-16.9L989.4,189h-30.9v62.2h-16.7V109.4h51.3c24.5,0,41.6,16.9,41.6,39
	c0,17.9-12.2,33.4-29.5,38.6L1042.3,251.2z"/>
<polygon fill="#FFFFFF" points="1180.7,109.4 1180.7,125 1106,125 1106,173.7 1172,173.7 1172,189 1106,189 1106,235.7 
	1180.7,235.7 1180.7,251.2 1089.5,251.2 1089.5,109.4 "/>
<path fill="#FFFFFF" d="M1234.4,201.9v-92.4h17.1v91.3c0,19.6,17.9,35.3,36.1,35.3c18.5,0,37.9-15.7,37.9-35.3v-91.3h16.5v92.4
	c0,30.3-24.5,50.7-54.4,50.7S1234.4,232.2,1234.4,201.9z"/>
<polygon fill="#FFFFFF" points="1412.8,109.4 1460.2,204.8 1507,109.4 1524.5,109.4 1524.5,251.2 1507.6,251.2 1507.6,141.7 
	1469.9,218.8 1450.9,218.8 1412,141.1 1412,251.2 1395.7,251.2 1395.7,109.4 "/>
</svg>
