<?xml version="1.0" encoding="utf-8"?>
<!-- Generator: Adobe Illustrator 18.1.1, SVG Export Plug-In . SVG Version: 6.00 Build 0)  -->
<svg version="1.1" id="Layer_1" xmlns="http://www.w3.org/2000/svg" xmlns:xlink="http://www.w3.org/1999/xlink" x="0px" y="0px"
	 viewBox="0 0 1920 1080" enable-background="new 0 0 1920 1080" xml:space="preserve">
<path opacity="0.45" fill="#FFFFFF" d="M300.5,372.5v235.2L196,545.9L300.5,372.5z M300.5,607.7l104.5-61.8l-104.5-47.5L196,545.9
	L300.5,607.7z M300.5,372.5v235.2l104.5-61.8L300.5,372.5z M300.5,707.5V622L196,560.2L300.5,707.5z M405.1,560.2L300.5,622v85.5
	L405.1,560.2z M613.2,481.1h-91.8v142.6h91.8v-15.6H538v-46.9h66.4v-15.4H538v-49h75.2 M730,623.7v-127h46.1v-15.6H667.2v15.6h46.1
	v127H730z M938.1,481.1h-16.6v64.7h-73.9v-64.7H831v142.6h16.6v-62.5h73.9v62.5h16.6V481.1z M992.1,481.1v142.6h91.8v-15.6h-75.2
	v-46.9h66.4v-15.4h-66.4v-49h75.2v-15.6H992.1z M1201.6,559.2c17.4-5.3,29.7-20.9,29.7-38.9c0-22.3-17.2-39.3-41.8-39.3h-51.6v142.6
	h16.8v-62.5h31.1l36.1,62.5h17L1201.6,559.2z M1154.7,545.7v-49.2h33.8c14.3,0,26.2,10.6,26.2,24.4c0,13.7-10,24.8-25.2,24.8H1154.7
	z M1286.4,481.1v142.6h91.8v-15.6H1303v-46.9h66.4v-15.4H1303v-49h75.2v-15.6H1286.4z M1485.8,625.1c30.1,0,54.7-20.5,54.7-51v-93
	h-16.6v91.8c0,19.7-19.5,35.6-38.1,35.6c-18.4,0-36.3-15.8-36.3-35.6v-91.8h-17.2v93C1432.2,604.6,1455.7,625.1,1485.8,625.1z
	 M1594.5,481.1v142.6h16.4V512.9l39.1,78.2h19.1l37.9-77.6v110.2h17V481.1h-17.6l-47.1,95.9l-47.7-95.9H1594.5z"/>
</svg>
