<?xml version="1.0" encoding="utf-8"?>
<!-- Generator: Adobe Illustrator 18.1.1, SVG Export Plug-In . SVG Version: 6.00 Build 0)  -->
<svg version="1.1" id="Layer_1" xmlns="http://www.w3.org/2000/svg" xmlns:xlink="http://www.w3.org/1999/xlink" x="0px" y="0px"
	 viewBox="0 0 1920 1080" enable-background="new 0 0 1920 1080" xml:space="preserve">
<rect fill="#FFFFFF" width="1920" height="1080"/>
<polygon opacity="0.45" points="210,545.8 312.6,606.5 312.6,375.6 "/>
<polygon opacity="0.6" points="210,545.8 312.6,499.2 415.2,545.8 312.6,606.5 "/>
<polygon opacity="0.8" points="415.2,545.8 312.6,606.5 312.6,375.6 "/>
<polygon opacity="0.45" points="312.6,704.4 312.6,620.5 210,559.8 "/>
<polygon opacity="0.8" points="312.6,704.4 312.6,620.5 415.3,559.8 "/>
<g>
	<path d="M619.6,496.2h-73.8v48.1H611v15.2h-65.2v46h73.8v15.3h-90.1v-140h90.1"/>
	<path d="M717.9,620.8V496.2h-45.3v-15.3h106.8v15.3h-45.3v124.7H717.9z"/>
	<path d="M938.5,620.8h-16.3v-61.4h-72.5v61.4h-16.3v-140h16.3v63.5h72.5v-63.5h16.3V620.8z"/>
	<path d="M1081.6,480.8v15.3h-73.8v48.1h65.2v15.2h-65.2v46h73.8v15.3h-90.1v-140H1081.6z"/>
	<path d="M1233.8,620.8h-16.7l-35.5-61.4h-30.5v61.4h-16.5v-140h50.6c24.2,0,41,16.7,41,38.6c0,17.6-12.1,33-29.2,38.2L1233.8,620.8
		z M1185.3,544.3c15,0,24.7-10.9,24.7-24.4c0-13.6-11.7-24-25.7-24h-33.2v48.3H1185.3z"/>
	<path d="M1370.6,480.8v15.3h-73.8v48.1h65.2v15.2h-65.2v46h73.8v15.3h-90.1v-140H1370.6z"/>
	<path d="M1423.6,572.1v-91.3h16.9V571c0,19.4,17.6,34.9,35.7,34.9c18.2,0,37.4-15.5,37.4-34.9v-90.1h16.3v91.3
		c0,29.9-24.2,50.1-53.7,50.1S1423.6,602,1423.6,572.1z"/>
	<path d="M1599.7,480.8l46.8,94.2l46.2-94.2h17.3v140h-16.7V512.7l-37.2,76.1h-18.8l-38.4-76.7v108.8h-16.1v-140H1599.7z"/>
</g>
</svg>
