<?xml version="1.0" encoding="utf-8"?>
<!-- Generator: Adobe Illustrator 18.1.1, SVG Export Plug-In . SVG Version: 6.00 Build 0)  -->
<svg version="1.1" id="Layer_1" xmlns="http://www.w3.org/2000/svg" xmlns:xlink="http://www.w3.org/1999/xlink" x="0px" y="0px"
	 viewBox="0 0 1530 336" enable-background="new 0 0 1530 336" xml:space="preserve">
<polygon opacity="0.45" fill="#FFFFFF" enable-background="new    " points="5.5,173.9 109.5,235.3 109.5,1.5 "/>
<polygon opacity="0.6" fill="#FFFFFF" enable-background="new    " points="5.5,173.9 109.5,126.7 213.4,173.9 109.5,235.3 "/>
<polygon opacity="0.8" fill="#FFFFFF" enable-background="new    " points="213.4,173.9 109.5,235.3 109.5,1.5 "/>
<polygon opacity="0.45" fill="#FFFFFF" enable-background="new    " points="109.5,334.5 109.5,249.5 5.5,188.1 "/>
<polygon opacity="0.8" fill="#FFFFFF" enable-background="new    " points="109.5,334.5 109.5,249.5 213.4,188.1 "/>
<path fill="#FFFFFF" d="M420.3,125h-74.8v48.8h66v15.3h-66v46.6h74.8v15.5H329V109.4h91.3"/>
<path fill="#FFFFFF" d="M519.8,251.2V125H474v-15.5h108.2V125h-45.8v126.2H519.8z"/>
<path fill="#FFFFFF" d="M743.2,251.2h-16.5v-62.2h-73.4v62.2h-16.5V109.4h16.5v64.3h73.4v-64.3h16.5V251.2z"/>
<path fill="#FFFFFF" d="M888.2,109.4V125h-74.8v48.8h66v15.3h-66v46.6h74.8v15.5h-91.3V109.4H888.2z"/>
<path fill="#FFFFFF" d="M1042.3,251.2h-16.9l-35.9-62.2h-30.9v62.2h-16.7V109.4h51.3c24.5,0,41.6,16.9,41.6,39
	c0,17.9-12.2,33.4-29.5,38.7L1042.3,251.2z M993.1,173.7c15.2,0,25.1-11.1,25.1-24.7c0-13.8-11.8-24.3-26-24.3h-33.6v48.9H993.1z"/>
<path fill="#FFFFFF" d="M1180.8,109.4V125H1106v48.8h66v15.3h-66v46.6h74.8v15.5h-91.3V109.4H1180.8z"/>
<path fill="#FFFFFF" d="M1234.4,201.9v-92.5h17.1v91.3c0,19.6,17.9,35.4,36.1,35.4c18.5,0,37.9-15.7,37.9-35.4v-91.3h16.5v92.5
	c0,30.3-24.5,50.7-54.4,50.7S1234.4,232.2,1234.4,201.9z"/>
<path fill="#FFFFFF" d="M1412.8,109.4l47.4,95.4l46.8-95.4h17.5v141.8h-16.9V141.7l-37.7,77.1h-19l-38.8-77.7v110.1h-16.3V109.4
	H1412.8z"/>
</svg>
