<?xml version="1.0" encoding="utf-8"?>
<!-- Generator: Adobe Illustrator 18.1.1, SVG Export Plug-In . SVG Version: 6.00 Build 0)  -->
<svg version="1.1" id="Layer_1" xmlns="http://www.w3.org/2000/svg" xmlns:xlink="http://www.w3.org/1999/xlink" x="0px" y="0px"
	 viewBox="0 0 3000 3000" enable-background="new 0 0 3000 3000" xml:space="preserve">
<g>
	<polygon fill="#8A92B2" points="1496,527.4 1158.5,1087.4 1496,934 	"/>
	<polygon fill="#62688F" points="1496,934 1158.5,1087.4 1496,1286.9 	"/>
	<polygon fill="#62688F" points="1833.5,1087.4 1496,527.4 1496,934 	"/>
	<polygon fill="#454A75" points="1496,1286.9 1833.5,1087.4 1496,934 	"/>
	<polygon fill="#8A92B2" points="1158.5,1151.4 1496,1627 1496,1350.8 	"/>
	<polygon fill="#62688F" points="1496.1,1350.8 1496.1,1627 1833.8,1151.4 	"/>
</g>
<g>
	<path fill="#8A92B2" d="M493.6,2312.5c0.6-7.8,0.9-15.7,0.9-23.7c0-18.4-2.7-35.5-8.1-51.4c-5.4-15.8-13.3-29.4-23.7-40.9
		c-10.4-11.4-23.1-20.3-38.2-26.7c-15-6.4-32.1-9.6-51.4-9.6c-19.2,0-36.6,3.9-52,11.7c-15.4,7.8-28.3,18.5-38.8,32.1
		c-10.4,13.6-18.4,29.9-24,49c-5.6,19-8.4,39.6-8.4,61.6c0,22.4,2.2,43.4,6.6,62.8c4.4,19.4,11.5,36.2,21.3,50.2
		c9.8,14,22.5,25,38.2,33c15.6,8,34.8,12,57.7,12c43.3,0,80.9-11.2,113-33.6c-3.2-17.2-9.8-30.4-19.8-39.7
		c-14.8,8-29.1,13.8-43,17.4c-13.8,3.6-26.7,5.4-38.8,5.4c-25.2,0-43.2-7.4-53.8-22.2c-10.6-14.8-16.5-36-17.7-63.7h176.6
		C491.9,2328.2,493,2320.3,493.6,2312.5z M420.3,2227.7c9.8,14.2,14.7,32.7,14.7,55.6v7.8H313.7c2.8-56.5,23.2-84.7,61.3-84.7
		C395.4,2206.4,410.5,2213.5,420.3,2227.7z"/>
	<path fill="#8A92B2" d="M658,2169.2v-88.9l-4.2-4.2h-23.4c-12.4,0-21,3-25.8,9c-4.8,6-7.2,16.2-7.2,30.6v52.9l-44.5-1.2
		c-1.6,7.6-2.4,15.5-2.4,23.7c0,8.2,0.8,15.7,2.4,22.5l44.5-0.6v192.3c0,41.3,21,61.9,63.1,61.9c21.6,0,44.1-1.4,67.3-4.3
		c0.8-2.8,1.2-8.8,1.2-17.9s-1.6-18.1-4.8-27.1h-41.5c-16.4,0-24.6-8.8-24.6-26.4v-179.1l73.9,1.2c2-6.4,3-14,3-22.8
		c0-8.8-1-16.6-3-23.4L658,2169.2z"/>
	<path fill="#8A92B2" d="M1026.9,2189.9c-13.2-17.8-33.3-26.7-60.1-26.7c-34,0-65.7,13.2-94.9,39.7v-140c0-14.4-2.4-24.6-7.2-30.6
		c-4.8-6-13.4-9-25.8-9h-24l-3.6,3.6v438c4,0.8,8.7,1.4,14.1,1.8c5.4,0.4,10.9,0.6,16.5,0.6c5.6,0,11-0.2,16.2-0.6
		c5.2-0.4,9.8-1,13.8-1.8v-208c10.4-11.2,22.5-20.2,36.3-27c13.8-6.8,27.3-10.2,40.6-10.2c13.2,0,22.5,4.4,27.9,13.2
		s8.1,23.6,8.1,44.3v152.2c0,13.2,2.5,23.1,7.5,29.7c5,6.6,14.1,9.9,27.3,9.9c13.2,0,25.4-4.4,36.6-13.2
		c-6.4-12.4-9.6-30.6-9.6-54.7v-139.4C1046.7,2231.6,1040.1,2207.7,1026.9,2189.9z"/>
	<path fill="#8A92B2" d="M1376.2,2312.5c0.6-7.8,0.9-15.7,0.9-23.7c0-18.4-2.7-35.5-8.1-51.4c-5.4-15.8-13.3-29.4-23.7-40.9
		c-10.4-11.4-23.1-20.3-38.2-26.7c-15-6.4-32.1-9.6-51.4-9.6c-19.2,0-36.6,3.9-52,11.7c-15.4,7.8-28.3,18.5-38.8,32.1
		c-10.4,13.6-18.4,29.9-24,49c-5.6,19-8.4,39.6-8.4,61.6c0,22.4,2.2,43.4,6.6,62.8c4.4,19.4,11.5,36.2,21.3,50.2
		c9.8,14,22.5,25,38.2,33c15.6,8,34.8,12,57.7,12c43.3,0,80.9-11.2,113-33.6c-3.2-17.2-9.8-30.4-19.8-39.7
		c-14.8,8-29.1,13.8-43,17.4c-13.8,3.6-26.7,5.4-38.8,5.4c-25.2,0-43.2-7.4-53.8-22.2c-10.6-14.8-16.5-36-17.7-63.7h176.6
		C1374.5,2328.2,1375.6,2320.3,1376.2,2312.5z M1302.9,2227.7c9.8,14.2,14.7,32.7,14.7,55.6v7.8h-121.4
		c2.8-56.5,23.2-84.7,61.3-84.7C1278,2206.4,1293.1,2213.5,1302.9,2227.7z"/>
	<path fill="#8A92B2" d="M1473.9,2258.7v206.1c7.6,1.6,17.9,2.4,30.9,2.4c13,0,23.3-0.8,30.9-2.4v-195.9
		c15.6-30.4,37-45.7,64.3-45.7c12.8,0.8,21,1.8,24.6,3c10-16,15-35.6,15-58.9c-11.6-2.4-22.2-3.6-31.8-3.6
		c-36.5,0-62.7,17.8-78.7,53.5c-8.8-29.6-27-47.5-54.7-53.5c-11.2,7.2-18.8,18.2-22.8,33C1466.4,2210.8,1473.9,2231.4,1473.9,2258.7
		z"/>
	<path fill="#8A92B2" d="M1916.4,2312.5c0.6-7.8,0.9-15.7,0.9-23.7c0-18.4-2.7-35.5-8.1-51.4c-5.4-15.8-13.3-29.4-23.7-40.9
		c-10.4-11.4-23.1-20.3-38.2-26.7c-15-6.4-32.1-9.6-51.4-9.6c-19.2,0-36.6,3.9-52,11.7c-15.4,7.8-28.3,18.5-38.8,32.1
		c-10.4,13.6-18.4,29.9-24,49c-5.6,19-8.4,39.6-8.4,61.6c0,22.4,2.2,43.4,6.6,62.8c4.4,19.4,11.5,36.2,21.3,50.2
		c9.8,14,22.5,25,38.2,33c15.6,8,34.8,12,57.7,12c43.3,0,80.9-11.2,113-33.6c-3.2-17.2-9.8-30.4-19.8-39.7
		c-14.8,8-29.1,13.8-43,17.4c-13.8,3.6-26.7,5.4-38.8,5.4c-25.2,0-43.2-7.4-53.8-22.2c-10.6-14.8-16.5-36-17.7-63.7h176.6
		C1914.7,2328.2,1915.8,2320.3,1916.4,2312.5z M1843.1,2227.7c9.8,14.2,14.7,32.7,14.7,55.6v7.8h-121.4
		c2.8-56.5,23.2-84.7,61.3-84.7C1818.1,2206.4,1833.2,2213.5,1843.1,2227.7z"/>
	<path fill="#8A92B2" d="M2026,2443.1c13.2,18,33,27,59.5,27c35.6,0,69.1-14.8,100.3-44.5c8.4,24.4,25.2,38.9,50.5,43.3
		c11.2-6.4,19-16.8,23.4-31.2c-11.2-10-16.8-29-16.8-57.1V2168c-12-1.6-22.6-2.4-31.8-2.4c-9.2,0-19.4,0.8-30.6,2.4v209.2
		c-10.8,11.2-23,20.1-36.7,26.7c-13.6,6.6-27,9.9-40.3,9.9s-22.4-4.4-27.6-13.2c-5.2-8.8-7.8-23.6-7.8-44.4v-152.8c0-26-11-39-33-39
		c-16,0-29,4.4-39.1,13.2c6.8,12,10.2,30,10.2,54.1v140C2006.2,2401.3,2012.8,2425.1,2026,2443.1z"/>
	<path fill="#8A92B2" d="M2515.1,2464.8c3.6,0.8,8.2,1.4,13.8,1.8c5.6,0.4,11.2,0.6,16.8,0.6c6,0,11.7-0.2,17.1-0.6
		c5.4-0.4,10.1-1,14.1-1.8v-209.1c21.6-24.4,43.3-36.6,64.9-36.6c12.4,0,21.5,4.4,27.3,13.2c5.8,8.8,8.7,23.4,8.7,43.9v153.2
		c0,26.4,11,39.7,33,39.7c14.8,0,27.8-4.4,39.1-13.2c-6.4-11.6-9.6-29.8-9.6-54.7v-144.2c0-27.6-6.6-50.3-19.8-67.9
		c-13.2-17.6-32.4-26.4-57.7-26.4c-30.8,0-62.7,14.8-95.5,44.5c-12.8-29.6-34.6-44.5-65.5-44.5c-30.4,0-59.9,13.6-88.3,40.9
		c-1.2-25.2-12.6-37.9-34.2-37.9h-23.4l-3.6,4.2v295c4,0.8,8.6,1.4,13.8,1.8c5.2,0.4,11,0.6,17.4,0.6c13.6,0,23.8-0.8,30.6-2.4
		v-209.1c21.6-24.4,43.3-36.6,64.9-36.6c12.4,0,21.5,4.5,27.3,13.5c5.8,9,8.7,23.7,8.7,44.2V2464.8z"/>
</g>
</svg>
