<?xml version="1.0" encoding="utf-8"?>
<!-- Generator: Adobe Illustrator 18.1.1, SVG Export Plug-In . SVG Version: 6.00 Build 0)  -->
<svg version="1.1" id="Layer_1" xmlns="http://www.w3.org/2000/svg" xmlns:xlink="http://www.w3.org/1999/xlink" x="0px" y="0px"
	 viewBox="0 0 1080 1080" enable-background="new 0 0 1080 1080" xml:space="preserve">
<g>
	<path fill="#ECF0F1" d="M912.1,408.7v525c0,15.6-5.5,28.9-16.4,39.8S871.5,990,855.9,990H218.4c-15.6,0-28.9-5.5-39.8-16.4
		c-11-10.9-16.4-24.2-16.4-39.8V146.2c0-15.6,5.5-28.9,16.4-39.8C189.5,95.5,202.8,90,218.4,90h375c15.6,0,32.8,3.9,51.6,11.7
		c18.7,7.8,33.6,17.2,44.5,28.1l182.8,182.8c10.9,10.9,20.3,25.8,28.1,44.5C908.2,375.9,912.1,393.1,912.1,408.7z M237.1,915h600
		V465H593.4c-15.6,0-28.9-5.5-39.8-16.4c-10.9-10.9-16.4-24.2-16.4-39.8V165h-300V915z M612.1,390h220.3c-3.9-11.3-8.2-19.3-12.9-24
		L636.2,182.6c-4.7-4.7-12.7-9-24-12.9V390z"/>
</g>
</svg>
