<?xml version="1.0" encoding="utf-8"?>
<!-- Generator: Adobe Illustrator 18.1.1, SVG Export Plug-In . SVG Version: 6.00 Build 0)  -->
<svg version="1.1" id="Layer_1" xmlns="http://www.w3.org/2000/svg" xmlns:xlink="http://www.w3.org/1999/xlink" x="0px" y="0px"
	 viewBox="0 0 1530 336" enable-background="new 0 0 1530 336" xml:space="preserve">
<path opacity="0.45" fill="#FFFFFF" d="M109.5,1.5v233.8L5.5,173.9L109.5,1.5z M109.5,235.3l103.9-61.4l-103.9-47.2L5.5,173.9
	L109.5,235.3z M109.5,1.5v233.8l103.9-61.4L109.5,1.5z M109.5,334.5v-85L5.5,188.1L109.5,334.5z M213.4,188.1l-103.9,61.4v85
	L213.4,188.1z M420.3,109.4H329v141.8h91.3v-15.5h-74.8V189h66v-15.3h-66V125h74.8 M536.3,251.2V125h45.8v-15.5H474V125h45.8v126.2
	H536.3z M743.2,109.4h-16.5v64.3h-73.4v-64.3h-16.5v141.8h16.5V189h73.4v62.2h16.5V109.4z M796.9,109.4v141.8h91.3v-15.5h-74.8V189
	h66v-15.3h-66V125h74.8v-15.5H796.9z M1005.2,187.1c17.3-5.2,29.5-20.8,29.5-38.6c0-22.1-17.1-39-41.6-39h-51.3v141.8h16.7V189h30.9
	l35.9,62.2h16.9L1005.2,187.1z M958.5,173.7v-48.9h33.6c14.2,0,26,10.5,26,24.3c0,13.6-9.9,24.7-25.1,24.7H958.5z M1089.5,109.4
	v141.8h91.3v-15.5H1106V189h66v-15.3h-66V125h74.8v-15.5H1089.5z M1287.6,252.6c29.9,0,54.4-20.4,54.4-50.7v-92.4h-16.5v91.3
	c0,19.6-19.4,35.3-37.9,35.3c-18.3,0-36.1-15.7-36.1-35.3v-91.3h-17.1v92.4C1234.4,232.2,1257.7,252.6,1287.6,252.6z M1395.7,109.4
	v141.8h16.3V141.1l38.8,77.7h19l37.7-77.1v109.5h16.9V109.4H1507l-46.8,95.4l-47.4-95.4H1395.7z"/>
</svg>
