<?xml version="1.0" encoding="utf-8"?>
<!-- Generator: Adobe Illustrator 18.1.1, SVG Export Plug-In . SVG Version: 6.00 Build 0)  -->
<svg version="1.1" id="Layer_1" xmlns="http://www.w3.org/2000/svg" xmlns:xlink="http://www.w3.org/1999/xlink" x="0px" y="0px"
	 viewBox="0 0 512 512" enable-background="new 0 0 512 512" xml:space="preserve">
<g>
	<path fill="#8A92B2" d="M483,154.8C427.1,29.5,280.1-26.8,154.8,29C29.5,84.9-26.8,231.9,29,357.2
		C84.9,482.5,231.9,538.8,357.2,483C482.5,427.1,538.8,280.1,483,154.8z M363.6,82.5c-0.7,4-6.2,5.6-8.5,8.7
		c-0.9,0.8-5.9,11.7-4.4,12.3c-6.8-3.2-14,0.1-19.2,4c-5.7,3.8-11.3,7.1-16.1,12.1c-2.1,2.6-4.3,5.2-5.3,8.5c-0.4,1.8,0.6,8.8-1,9.9
		c3.1-2.2,3.2-6.8,5-10.1c2.7-4.1,7.5-9.9,13-10.7c4.2-0.7,7.9-0.7,4.9,4.4c-1.5,2.3-5.2,2.3-7.3,4.1c3.4-0.7,8.5-1.3,8.5,2.4
		c11.2,1.2,2.3,12.6-3.9,14.5c2.9-0.9-3.4,8.1-3.5,7.8c-2.3,3.1-6.5,4.9-7.5,9.1c-1.1,5,5.6,9.9-0.1,10.8c-0.1,5.4-9,6.5-10.3,12.9
		c5.6,2.4,0.7,11.6-5.4,8.2c-2.8,2.9,0.6,5.9-1.9,9.5c2.3,1.5,3.6,3.4,1.8,5.8c0.5-0.6,6.2,1,7.4,0.8c0.1,2-0.7,4-2.4,4.8
		c3.7,3.7,2.1,10.2,0.2,14.3c-2.2,4.3-8.9,10.6-9.6,11.7c-3.6,8.6-3.9,19,8.2,16.5c0.3-0.2,5.4,11.2,5.9,11.4
		c2.5,3.8,9.6,15.1,0.4,13.8c-4.2-0.2-10.6-8.9-13.3-12.2c-2.9-3.7-3.2-3.5-7.8-6.4c-2.2,7.2-4.5,3.7-9.4,3
		c-4.7-0.4-9.9,2.8-12.9,1.6c-3.5,6.1-7.7,6.7-11.4,1.3c-0.2,3.4,4.4,6.3,4.6,7.4c-0.2,4.2-3.6,4.9-7.3,4.1
		c-5.9-1.4-12.8,8.4-19,8.6c0.6,0.1,2.3,0.6,3.4,0.8c0.8,4.6-2.7,3.3-4.1,5.5c-1.6,2.8-2.2,7.1-3.5,9.8c8.3,6.6,7.2,17,11.6,26.1
		c3.1,6.9,12.9,16.9,21.1,17.8c3.9,0.3,14.5-3.6,17-6.3c3.9-4.2,1.5-7.7,1.4-12.6c-0.3-5.2,0.9-8.2,5.9-10.9
		c14.5-7.3,8.5,9.8,9.5,16.8c1,4.9,2.9,10.2,4.1,14.7c2-0.1,3.6-1.2,5.3-2c-0.6-1.4-0.4-3.6-0.8-4.6c3.6,2.5,10.9,0.5,11.2-4.6
		c4.3,3.1,10.5,4,13.3,8.5c2.8,4.5,9.6,7.7,3.1,10.6c-4.8,2.2,5,9.3,6.4,10.7c6.9,5.2,14.3,5.2,19.6-1.3c1.2,2.8,3.6,10.8,0.1,13.2
		c-3.1,2.2-12.9-2.1-13.2-6.5c0.3,1.5-0.3,3-1,4.2c-5.3-2.6-12-2.1-17-4.8c-1.1-0.7-16.7-10.7-15-12.3c-3.9,4.2-15,5.1-20.6,4.6
		c-8.9-0.6-14.4-10.1-22.7-4.7c-5.7,3.8-6.4,7-14.8,7.4c-5.6,0.4-11.2-1.2-17.1-1.4c-6.9-0.6-17.9,0.6-23-5.4
		c-4.5-4.6-6.7-11.4-12.1-15.2c-3.6-2.5-12.9-6.6-17.3-4.7c4.1-1.8-8.4-8.6-9.9-9.2c-5.8-2.8-24.9-8.7-25.2-16.8
		c0.2-1.3-8.6-0.7-10.1-0.4c2.9,2.8,4.9,6.4,8,8.8c3.2,2.7,6.7,4.8,10.3,7.4c6.5,4.5,15.1,9.8,17.8,17.6c-3.9,3.4-5.4-3.8-8-5.9
		c-4.4-3.4-10.9-0.5-14.8-4.5c0.5-0.7,0.9-0.8,1.4-1.5c-2.3-6-13-7-13.5-11.7c-6.5-1.6-9.7-8.9-15.3-12.1c-5.1-3.1-11.2-2.9-17-4
		c-2.2-0.3-21.6-10.6-17.6-13.6c-6.1,4.8-16.8-9.9-17.6-14.4c0,0-0.7,0.3-0.8,0c-0.5-4.7-12.4-25-7-27.8c-3.6,2-8.8-6.8-8.5-9
		c0.1-1.7,7.5,1.2,8.2,1.7c1.6-1.9,2.4-5.6,0.7-7.7c-2.2-2.3-7.1-3-10.4-4c-1.3-0.2-19.1-3-19.3-2.5c0.3-3-1.1-5.3-3.9-6.1
		c-4.2,8.1-5.2-3.4-9.1-2.9c-1.5,0.3-3.4-0.1-5.4-0.9c5.8-40.5,21.9-79.4,46.8-112.3c1.9-1.3,4.7-2.5,7.4-3.7
		c6.5-2.1,12.2,1.5,18.1,2.7c-0.1-2-2.7-4.2-4.5-5.4c-0.2-3.2,3.6-5.7,5.7-7.5c3-1.7,7.1-4.4,10.5-4.3c-3.5-2.2-7.1-3.9-10.7-5.5
		c-0.2,0.5-0.9,1.6-0.9,2.5c-5.2-1.4-10.5,5.9-13.4,8.8c-2.1,2.6-3.8,5.4-6.1,7.7c-1.4,1.4-2.5,1.9-4,2.2
		c7.9-10.1,16.4-19.7,26-28.5c2.7,0.5,5.8,1.9,10,3c-2.8-0.8,0.7,7.1,2,8.2c6.1,3.5,12.8-3.6,18-5.9c-0.3,0.1,14.7-4.3,11.7-6.8
		c-0.2-0.1-0.3-0.2-0.5-0.3c0.2,0.1,0.4,0.2,0.5,0.3c3.7,2.5,5.9,7.3,10.2,8.9c1.7-4.5-4.3-5.9-3.6-9.9c0.1-1.7,5.5-6.2,7.1-8.1
		c1.6-2.8-3.5-3.4-4.9-3.6c-4.4-0.5-18.2,4.4-15.2-6.4c1.2-3.8,10.4-6.3,13.9-5.8c4.7,0.4,10.5,2.3,6.9,8.1
		c2.6-0.7,15.3-2.7,15.6,2.5c0.1-2.5,0.5-6.4,3.2-7.6c3.2-1,7.1,5.9,9.3,7c8.7,6.4,9.3-14.4,10.9-14.4c-7.3,0.4,3-7.9,6.6-8.3
		c2.9,0,10.3,6.5,5.7,8.2c5.3,1.7,9,9.2,2,11.9c-5,1.8-13.4-2.3-15.5,4.9c-1.6,4.8-0.6,10.6-2.3,15.1c-2.7,7-9.4,9.5-15.5,11.5
		c2.5-0.7-1.5,10.6-1.6,12.2c-1,3.3-1.1,6.7-0.6,9.7c0.9,3.7,3.2,7.2,3,11.4c5.1-4.3,12.9,5,10.7,6.4c6.8-4.3,12.6-6.9,20.6-7.5
		c5.6-0.4,13.7-1.6,18.1,2.7c0.5-2.7,7.5-4.6,9.8-4.8c5.1,0.2,7.4,4.5,10.1,7.9c3.7,4.5,12,11.1,16.6,5.8c0.7-1.1,6.8-8,3.1-8.8
		c-3.8-1.2-9.7-6-8.5-10.7c1.1-5,7.2-9,6.7-14.5c-0.8-9.1-11.3-3.2-13.9-9c-1.5-3.4,2.5-6.5,0.3-10.4c-1.5-3.4-9.8-8-6.7-12.3
		c2.5-3.6,20.6-7.5,24.6-6.8c4,0.7,14.9-0.9,16.9,1.9c-0.7,0.3-1,0.5-1.7,0.8c3.8,1.2,8.5,5.3,4.3,8.8c2.6-2,12.2-2.5,8.7,1.5
		c1.5-1.3,3.1-1.6,4.3-3.6c1.8-2.5,2.1-5.5,6-5.1c0.9,0,1.3-9.2,3.5-9.8c3.3-1,5.9,3.1,8.2,4.6c2.8,2.5,7,1.8,9.7,4.3
		c5,4.8,6.5,10.7,15.3,9.3c2.7-0.4,7.6-7.1,9.5-1.8c0.8-2,1-3.3,0.8-3.7c2.5,4.7,7,9.2,12.5,6C360.9,74.7,363.8,81.2,363.6,82.5z
		 M392.6,454.6c-1.1-1.6-3-4.9-3.1-5.2c-2.8-5.4,1.3-11.7-1.3-16.7c-4.3,0.7-7-2.7-8.1-7.1c-1.9-6.1,1.4-12.6,3.8-18.2
		c2.4-5.6-0.1-14-3.2-18.3c-5.4-7.5-9.2-16.1-14.3-23.7c1.3,1.9,6.8-1.4,9.1,0.9c0.3-3-0.4-6.4,0.3-9.6c0.5-2.7,2.6-4.4,3.9-7.1
		c2.5-3.6,6.2-14.7,12.5-11.8c5.3,2.6-1.3,10.9,4.8,12.7c0.1-3.4-3.1-6.9-1.5-10.9c2.7-8.6,9.6-3.4,15.8-4.2c6.6-0.9,9.6,0.2,15.8,2
		c-2-0.8,3.8-6.2,4.3-6.9c5.9-4.3,10.4-1.7,16.4-0.3c6.4,1.3,15,0.3,17.4,7.5c3.7-0.8,6.3-0.7,9.5-0.9c3.4,0.1,6.8-2.2,9.8-1.1
		C467.6,383.2,436,425.3,392.6,454.6z"/>
	<path fill="#569057" d="M290.3,75.2c0.3-0.3,0.5-0.5,0.7-0.7C290.7,74.7,290.5,74.9,290.3,75.2z"/>
	<path fill="#569057" d="M136.1,76.5c-0.1-0.1-0.3-0.2-0.5-0.3C135.8,76.2,136,76.4,136.1,76.5z"/>
	<path fill="#569057" d="M235.7,287.5c0.1,0,0.2,0,0.2,0C235.8,287.5,235.7,287.5,235.7,287.5z"/>
</g>
</svg>
